<svg width="32" height="32" viewBox="0 0 32 32" fill="none" xmlns="http://www.w3.org/2000/svg">
	<path fill-rule="evenodd" clip-rule="evenodd" d="M29.3585 20.2617C26.6141 28.9674 16 32 16 32C16 32 2 28 2 16V5.5086C2 4.61564 2.59195 3.83087 3.45056 3.58555L16 0L28.5494 3.58555C29.408 3.83087 30 4.61564 30 5.5086V12V16C30 16 30 16 30 16C30 17.5514 29.766 18.9691 29.3585 20.2617ZM26 10.8571V7.01721L16 4.16006L6 7.01721V16C6 20.2091 8.39074 23.1492 11.325 25.2451C12.7793 26.2839 14.2595 27.0272 15.3882 27.5109C15.609 27.6055 15.814 27.6892 16 27.7624L16 8L26 10.8571Z" fill="#EADC99"/>
</svg>