<svg width="32" height="32" viewBox="0 0 32 32" fill="none" xmlns="http://www.w3.org/2000/svg">
	<path fill-rule="evenodd" clip-rule="evenodd" d="M4 21.0098V10.9902L10.9902 4H21.0098L28 10.9902V21.0098L21.0098 28H10.9902L4 21.0098ZM8.74755 0.585786C9.12262 0.210713 9.63133 0 10.1618 0H21.8382C22.3687 0 22.8774 0.210714 23.2525 0.585787L31.4142 8.74755C31.7893 9.12262 32 9.63133 32 10.1618V21.8382C32 22.3687 31.7893 22.8774 31.4142 23.2525L23.2525 31.4142C22.8774 31.7893 22.3687 32 21.8382 32H10.1618C9.63133 32 9.12262 31.7893 8.74755 31.4142L0.585786 23.2525C0.210713 22.8774 0 22.3687 0 21.8382V10.1618C0 9.63133 0.210714 9.12262 0.585786 8.74755L8.74755 0.585786ZM16 23C19.866 23 23 19.866 23 16C23 12.134 19.866 9 16 9C12.134 9 9 12.134 9 16C9 19.866 12.134 23 16 23Z" fill="#36B24A"/>
</svg>